<svg xmlns="http://www.w3.org/2000/svg" viewBox="0 0 1200 630" width="1200" height="630">
  <defs>
    <radialGradient id="g1" cx="20%" cy="20%" r="60%">
      <stop offset="0%" stop-color="#f97316" stop-opacity="0.55"/>
      <stop offset="100%" stop-color="#090909" stop-opacity="0"/>
    </radialGradient>
    <radialGradient id="g2" cx="85%" cy="90%" r="60%">
      <stop offset="0%" stop-color="#7e22ce" stop-opacity="0.55"/>
      <stop offset="100%" stop-color="#090909" stop-opacity="0"/>
    </radialGradient>
  </defs>
  <rect width="1200" height="630" fill="#090909"/>
  <rect width="1200" height="630" fill="url(#g1)"/>
  <rect width="1200" height="630" fill="url(#g2)"/>

  <g transform="translate(80,120)">
    <rect x="0" y="0" width="220" height="42" rx="21" fill="#0c0c0c" stroke="#f97316" stroke-opacity="0.45"/>
    <text x="110" y="28" text-anchor="middle" font-family="-apple-system, Segoe UI, Inter, sans-serif" font-size="16" font-weight="600" fill="#fdba74">SOUL.md generator</text>
  </g>

  <text x="80" y="280" font-family="-apple-system, Segoe UI, Inter, sans-serif" font-size="96" font-weight="900" fill="#ffffff" letter-spacing="-4">Hermes Soul Studio</text>
  <text x="80" y="340" font-family="-apple-system, Segoe UI, Inter, sans-serif" font-size="32" font-weight="500" fill="#d4d4d4">Build the operating system for your AI operator.</text>

  <g transform="translate(80,420)" font-family="-apple-system, Segoe UI, Inter, sans-serif" font-size="22" fill="#a3a3a3">
    <text x="0" y="0">• Workspaces, brains, skills</text>
    <text x="0" y="40">• Approval gates + safe handoffs</text>
    <text x="0" y="80">• Local-first. No login. No cloud.</text>
  </g>

  <g transform="translate(900,260)">
    <circle cx="0" cy="0" r="140" fill="none" stroke="#f97316" stroke-width="5" stroke-opacity="0.8"/>
    <circle cx="0" cy="0" r="70" fill="none" stroke="#f97316" stroke-width="3" stroke-opacity="0.5"/>
    <circle cx="0" cy="0" r="22" fill="#f97316"/>
    <g stroke="#f97316" stroke-width="4" stroke-linecap="round" stroke-opacity="0.9">
      <line x1="0" y1="-180" x2="0" y2="-150"/>
      <line x1="0" y1="180" x2="0" y2="150"/>
      <line x1="-180" y1="0" x2="-150" y2="0"/>
      <line x1="180" y1="0" x2="150" y2="0"/>
    </g>
  </g>
</svg>
